<svg width="160" height="28" viewBox="0 0 160 28" fill="none" xmlns="http://www.w3.org/2000/svg">
<mask id="mask0_1432_3235" style="mask-type:alpha" maskUnits="userSpaceOnUse" x="0" y="0" width="160" height="28">
<rect width="160" height="28" fill="#D9D9D9"/>
</mask>
<g mask="url(#mask0_1432_3235)">
<path d="M-0.987194 -8.07031H1.81967L-48.7039 36.0701H-51.5107L-0.987194 -8.07031Z" fill="#1A21BD"/>
<path d="M8.13488 -8.07031H10.9417L-39.5818 36.0701H-42.3887L8.13488 -8.07031Z" fill="#1A21BD"/>
<path d="M17.2579 -8.07031H20.0648L-30.4588 36.0701H-33.2656L17.2579 -8.07031Z" fill="#1A21BD"/>
<path d="M26.38 -8.07031H29.1869L-21.3367 36.0701H-24.1436L26.38 -8.07031Z" fill="#1A21BD"/>
<path d="M35.5021 -8.07031H38.3089L-12.2146 36.0701H-15.0215L35.5021 -8.07031Z" fill="#1A21BD"/>
<path d="M44.6251 -8.07031H47.432L-3.09157 36.0701H-5.89844L44.6251 -8.07031Z" fill="#1A21BD"/>
<path d="M53.7472 -8.07031H56.554L6.0305 36.0701H3.22363L53.7472 -8.07031Z" fill="#1A21BD"/>
<path d="M62.8683 -8.07031H65.6751L15.1516 36.0701H12.3447L62.8683 -8.07031Z" fill="#1A21BD"/>
<path d="M71.9903 -8.07031H74.7972L24.2737 36.0701H21.4668L71.9903 -8.07031Z" fill="#1A21BD"/>
<path d="M81.1134 -8.07031H83.9203L33.3967 36.0701H30.5898L81.1134 -8.07031Z" fill="#1A21BD"/>
<path d="M90.2355 -8.07031H93.0423L42.5188 36.0701H39.7119L90.2355 -8.07031Z" fill="#1A21BD"/>
<path d="M99.3575 -8.07031H102.164L51.6408 36.0701H48.834L99.3575 -8.07031Z" fill="#1A21BD"/>
<path d="M108.481 -8.07031H111.287L60.7639 36.0701H57.957L108.481 -8.07031Z" fill="#1A21BD"/>
<path d="M117.603 -8.07031H120.41L69.886 36.0701H67.0791L117.603 -8.07031Z" fill="#1A21BD"/>
<path d="M126.725 -8.07031H129.532L79.008 36.0701H76.2012L126.725 -8.07031Z" fill="#1A21BD"/>
<path d="M135.848 -8.07031H138.655L88.1311 36.0701H85.3242L135.848 -8.07031Z" fill="#1A21BD"/>
<path d="M144.97 -8.07031H147.777L97.2532 36.0701H94.4463L144.97 -8.07031Z" fill="#1A21BD"/>
<path d="M154.092 -8.07031H156.899L106.375 36.0701H103.568L154.092 -8.07031Z" fill="#1A21BD"/>
<path d="M163.214 -8.07031H166.021L115.497 36.0701H112.69L163.214 -8.07031Z" fill="#1A21BD"/>
<path d="M172.337 -8.07031H175.144L124.62 36.0701H121.813L172.337 -8.07031Z" fill="#1A21BD"/>
<path d="M181.459 -8.07031H184.266L133.742 36.0701H130.936L181.459 -8.07031Z" fill="#1A21BD"/>
<path d="M190.581 -8.07031H193.388L142.864 36.0701H140.058L190.581 -8.07031Z" fill="#1A21BD"/>
<path d="M199.704 -8.07031H202.511L151.988 36.0701H149.181L199.704 -8.07031Z" fill="#1A21BD"/>
<path d="M208.826 -8.07031H211.633L161.11 36.0701H158.303L208.826 -8.07031Z" fill="#1A21BD"/>
</g>
</svg>
