<svg width="47" height="48" viewBox="0 0 47 48" fill="none" xmlns="http://www.w3.org/2000/svg">
<path d="M23.4904 5.22391C29.7663 5.22391 30.503 5.25188 32.9835 5.36379C35.2775 5.46637 36.5178 5.8487 37.3478 6.17509C38.4481 6.60405 39.2315 7.10761 40.0521 7.92824C40.8727 8.74886 41.3856 9.53218 41.8052 10.6326C42.1223 11.4625 42.514 12.7028 42.6165 14.9968C42.7284 17.4773 42.7564 18.214 42.7564 24.4899C42.7564 30.7658 42.7284 31.5025 42.6165 33.983C42.514 36.2771 42.1316 37.5173 41.8052 38.3473C41.3763 39.4477 40.8727 40.231 40.0521 41.0516C39.2315 41.8722 38.4481 42.3851 37.3478 42.8048C36.5178 43.1218 35.2775 43.5135 32.9835 43.6161C30.503 43.728 29.7663 43.7559 23.4904 43.7559C17.2145 43.7559 16.4778 43.728 13.9972 43.6161C11.7032 43.5135 10.463 43.1311 9.63302 42.8048C8.53263 42.3758 7.74931 41.8722 6.92868 41.0516C6.10806 40.231 5.59517 39.4477 5.17553 38.3473C4.85847 37.5173 4.46681 36.2771 4.36423 33.983C4.25233 31.5025 4.22435 30.7658 4.22435 24.4899C4.22435 18.214 4.25233 17.4773 4.36423 14.9968C4.46681 12.7028 4.84915 11.4625 5.17553 10.6326C5.60449 9.53218 6.10806 8.74886 6.92868 7.92824C7.74931 7.10761 8.53263 6.59472 9.63302 6.17509C10.463 5.85803 11.7032 5.46637 13.9972 5.36379C16.4778 5.24256 17.2238 5.22391 23.4904 5.22391ZM23.4904 0.990234C17.1119 0.990234 16.3099 1.01821 13.8014 1.13011C11.3022 1.24202 9.59571 1.643 8.10367 2.22117C6.55567 2.81799 5.25013 3.62929 3.94459 4.93482C2.63905 6.24036 1.83708 7.55523 1.23094 9.0939C0.65277 10.5859 0.251783 12.2925 0.139879 14.801C0.0279758 17.3001 0 18.1021 0 24.4806C0 30.8591 0.0279758 31.6611 0.139879 34.1696C0.251783 36.6687 0.65277 38.3753 1.23094 39.8766C1.82776 41.4246 2.63905 42.7302 3.94459 44.0357C5.25013 45.3412 6.565 46.1432 8.10367 46.7493C9.59571 47.3275 11.3022 47.7285 13.8107 47.8404C16.3192 47.9523 17.1119 47.9803 23.4997 47.9803C29.8875 47.9803 30.6802 47.9523 33.1887 47.8404C35.6879 47.7285 37.3944 47.3275 38.8957 46.7493C40.4437 46.1525 41.7493 45.3412 43.0548 44.0357C44.3604 42.7302 45.1623 41.4153 45.7685 39.8766C46.3466 38.3846 46.7476 36.6781 46.8595 34.1696C46.9714 31.6611 46.9994 30.8684 46.9994 24.4806C46.9994 18.0928 46.9714 17.3001 46.8595 14.7916C46.7476 12.2925 46.3466 10.5859 45.7685 9.08457C45.1717 7.53658 44.3604 6.23104 43.0548 4.9255C41.7493 3.61996 40.4344 2.81799 38.8957 2.21185C37.4037 1.63368 35.6972 1.23269 33.1887 1.12079C30.6709 1.01821 29.8689 0.990234 23.4904 0.990234Z" fill="white"/>
<path d="M23.4901 12.4229C16.8318 12.4229 11.4232 17.8222 11.4232 24.4898C11.4232 31.1573 16.8225 36.5567 23.4901 36.5567C30.1576 36.5567 35.557 31.1573 35.557 24.4898C35.557 17.8222 30.1576 12.4229 23.4901 12.4229ZM23.4901 32.3137C19.1631 32.3137 15.6568 28.8074 15.6568 24.4804C15.6568 20.1535 19.1631 16.6472 23.4901 16.6472C27.817 16.6472 31.3233 20.1535 31.3233 24.4804C31.3233 28.8074 27.817 32.3137 23.4901 32.3137Z" fill="white"/>
<path d="M36.0338 14.754C37.5892 14.754 38.8501 13.4932 38.8501 11.9378C38.8501 10.3825 37.5892 9.12158 36.0338 9.12158C34.4785 9.12158 33.2176 10.3825 33.2176 11.9378C33.2176 13.4932 34.4785 14.754 36.0338 14.754Z" fill="white"/>
</svg>
