<svg width="47" height="39" viewBox="0 0 47 39" fill="none" xmlns="http://www.w3.org/2000/svg">
<path fill-rule="evenodd" clip-rule="evenodd" d="M4.2298 5.48297C4.58538 4.67087 5.38993 4.0977 6.31429 4.0977H40.6857C41.6101 4.0977 42.4146 4.67087 42.7702 5.48297L23.5 19.1805L4.2298 5.48297ZM0.000266971 6.37648C-5.45843e-05 6.39657 -8.54462e-05 6.41666 0.000173201 6.43673V32.5884C0.000173201 36.1194 2.83691 39 6.31429 39H40.6857C44.1631 39 46.9998 36.1194 46.9998 32.5884V6.43681C47.0001 6.41668 47.0001 6.39653 46.9997 6.37638C46.9809 2.8614 44.1515 0 40.6857 0H6.31429C2.84846 0 0.019021 2.86146 0.000266971 6.37648ZM42.9645 10.3468V32.5884C42.9645 33.8563 41.9344 34.9023 40.6857 34.9023H6.31429C5.06559 34.9023 4.03555 33.8563 4.03555 32.5884V10.3468L22.3429 23.3599C23.0377 23.8537 23.9623 23.8537 24.6571 23.3599L42.9645 10.3468Z" fill="white"/>
</svg>
