<svg width="48" height="43" viewBox="0 0 48 43" fill="none" xmlns="http://www.w3.org/2000/svg">
<path fill-rule="evenodd" clip-rule="evenodd" d="M24.2218 0C11.355 0 0.978516 8.3011 0.978516 18.3787C0.978516 24.9201 5.29513 30.6479 11.7701 33.9185L9.57855 42.1036C9.53723 42.2263 9.53087 42.3579 9.56019 42.484C9.58952 42.6101 9.65336 42.7255 9.74457 42.8174C9.87757 42.9347 10.0487 42.9996 10.226 43C10.3731 42.9882 10.5126 42.9301 10.6245 42.834L20.0546 36.4754C21.4467 36.6675 22.8499 36.7672 24.255 36.7741C37.1053 36.7741 47.4984 28.473 47.4984 18.3787C47.4984 8.2845 37.0721 0 24.2218 0ZM9.11061 15.4733H6.57045C6.25561 15.4824 5.94467 15.4018 5.67392 15.2408C5.55372 15.1655 5.45038 15.0661 5.37038 14.949C5.29038 14.8318 5.23546 14.6994 5.20906 14.5601C5.20099 14.4717 5.20099 14.3829 5.20906 14.2946C5.20117 14.1292 5.23326 13.9643 5.30263 13.814C5.37199 13.6638 5.47658 13.5325 5.60751 13.4312C5.89695 13.2216 6.24631 13.1109 6.60365 13.1157H14.2573C14.5747 13.1045 14.8878 13.1915 15.1539 13.3647C15.2769 13.4367 15.3824 13.5352 15.4628 13.6529C15.5432 13.7706 15.5965 13.9047 15.6187 14.0455C15.6269 14.1283 15.6269 14.2118 15.6187 14.2946C15.6266 14.4623 15.5946 14.6294 15.5253 14.7824C15.456 14.9353 15.3515 15.0696 15.2203 15.1743C14.9379 15.3837 14.5919 15.4893 14.2407 15.4733H11.7836V24.2061C11.7936 24.3922 11.7648 24.5782 11.699 24.7525C11.6333 24.9269 11.5321 25.0857 11.4017 25.2189C11.2768 25.3462 11.1265 25.4459 10.9607 25.5117C10.7948 25.5775 10.6171 25.6077 10.4388 25.6007C10.127 25.6096 9.82181 25.5099 9.57548 25.3186C9.34096 25.1316 9.1818 24.8662 9.12722 24.5713C9.11081 24.4501 9.11081 24.3273 9.12722 24.2061L9.11061 15.4733ZM16.8354 13.0994C16.5984 13.2537 16.4269 13.4903 16.3539 13.7635L12.8342 23.3099C12.8156 23.3612 12.793 23.4137 12.7702 23.4669L12.7701 23.4671L12.7701 23.4671L12.7701 23.4671C12.7117 23.6033 12.6516 23.7432 12.6516 23.8745C12.6231 24.0393 12.6231 24.2077 12.6516 24.3725C12.6428 24.4663 12.6428 24.5609 12.6516 24.6548C12.7002 24.9301 12.8478 25.1779 13.0666 25.352C13.2912 25.5206 13.5662 25.6084 13.847 25.601C14.1061 25.6336 14.3686 25.5753 14.5896 25.4361C14.8106 25.2968 14.9765 25.0852 15.0589 24.8374L15.7562 22.7953H20.1227L20.82 24.8374C20.9045 25.0804 21.0684 25.288 21.2852 25.4265C21.5021 25.5651 21.7593 25.6265 22.0153 25.601C22.1818 25.605 22.3474 25.5747 22.5016 25.5119C22.6559 25.449 22.7955 25.355 22.9119 25.2358C23.0319 25.1272 23.1268 24.9936 23.1899 24.8445C23.2529 24.6954 23.2827 24.5343 23.2771 24.3725C23.2828 24.2674 23.2828 24.1622 23.2771 24.0571C23.2194 23.8042 23.1474 23.5546 23.0613 23.3099L19.7408 13.9295C19.6614 13.5971 19.4599 13.3067 19.1763 13.116C18.9087 12.9639 18.604 12.8891 18.2964 12.9002H17.6655C17.3756 12.8872 17.0879 12.9563 16.8354 13.0994ZM16.4369 20.9192L18.0142 15.9385L19.5748 20.9192H16.4369ZM23.6573 14.2948C23.6405 13.9222 23.7718 13.5581 24.0226 13.282C24.1501 13.1534 24.3031 13.0529 24.4719 12.9872C24.6406 12.9214 24.8212 12.8916 25.0021 12.9C25.3131 12.8964 25.6166 12.9957 25.8654 13.1823C26.096 13.3771 26.2492 13.648 26.2971 13.946C26.3134 14.0616 26.3134 14.1791 26.2971 14.2948V23.0276H30.8628C31.1792 23.0235 31.4903 23.1097 31.7593 23.2765C31.8802 23.351 31.984 23.4503 32.0641 23.5675C32.1442 23.6848 32.1987 23.8176 32.2241 23.9573V24.2063C32.232 24.3717 32.1999 24.5364 32.1306 24.6867C32.0612 24.8369 31.9566 24.9684 31.8257 25.0697C31.5363 25.2793 31.1869 25.3898 30.8296 25.385H25.2179C24.8605 25.408 24.5053 25.315 24.2052 25.1196C23.9368 24.9188 23.7579 24.6207 23.7071 24.2894C23.695 24.107 23.695 23.9238 23.7071 23.7414L23.6573 14.2948ZM32.889 13.2819C32.6442 13.5615 32.5138 13.9231 32.5237 14.2946L32.4241 24.1231C32.4077 24.2443 32.4077 24.3673 32.4241 24.4885C32.4787 24.7834 32.6379 25.0486 32.8724 25.2355C33.1136 25.4244 33.4128 25.5242 33.7191 25.5178C33.9024 25.5255 34.0853 25.4955 34.2567 25.4299C34.428 25.3642 34.584 25.264 34.7152 25.1358C34.96 24.8562 35.0904 24.4946 35.0805 24.1231V21.3506L36.5581 19.8065L39.6461 24.7872C39.7741 25.0207 39.9563 25.22 40.1774 25.3683C40.3818 25.4756 40.6109 25.5273 40.8415 25.5178C41.1887 25.5227 41.5275 25.4116 41.8045 25.2023C41.9517 25.077 42.0664 24.9181 42.1387 24.7388C42.211 24.5595 42.2387 24.3653 42.2195 24.1729V24.09C42.1279 23.8109 41.9935 23.5475 41.8211 23.3096V23.1436L38.5006 17.9969L41.2566 14.9751C41.3781 14.838 41.4839 14.6878 41.572 14.5271C41.6585 14.3753 41.7043 14.2036 41.7048 14.0289C41.6968 13.9906 41.6968 13.9511 41.7048 13.9128C41.7115 13.8799 41.7115 13.8459 41.7048 13.8131C41.6812 13.679 41.6308 13.5512 41.5566 13.4371C41.4825 13.323 41.3861 13.2249 41.2732 13.1489C41.0336 12.9852 40.7498 12.8983 40.4597 12.8998C40.2612 12.896 40.0657 12.9479 39.8952 13.0494C39.7142 13.1936 39.5423 13.3487 39.3805 13.5141L35.1801 18.3621V14.2946C35.1883 14.1785 35.1883 14.0619 35.1801 13.9458C35.1264 13.646 34.9675 13.3752 34.7318 13.1822C34.4601 12.9842 34.1284 12.886 33.7927 12.9041C33.457 12.9223 33.1378 13.0558 32.889 13.2819Z" fill="white"/>
</svg>
